# xmcd
#
# Track frame offsets: 
#        150
#        13175
#        34932
#        50157
#
# Disc length: 879 seconds
#
# Revision: 0
# Processed by: cddbd v1.5.2PL0 Copyright (c) Steve Scherf et al.
# Submitted via: ExactAudioCopy v1.1
#
DISCID=32036d04
DTITLE=Jeff Carson - Holdin' Onto Something
DYEAR=1995
DGENRE=Country
TTITLE0=Holdin' Onto Something
TTITLE1=Holdin' Onto Something (Dance Mix)
TTITLE2=Not On YOur Love
TTITLE3=The Car
EXTD=
EXTT0=
EXTT1=
EXTT2=
EXTT3=
PLAYORDER=
